<svg width="206px" height="156px" viewBox="0 0 206 156" version="1.1" xmlns="http://www.w3.org/2000/svg" xmlns:xlink="http://www.w3.org/1999/xlink">
    <g id="Page-1" stroke="none" stroke-width="1" fill="none" fill-rule="evenodd">
        <g id="logo" transform="translate(0.000000, -1.000000)" fill-rule="nonzero">
            <path d="M70.6,45.8 L70.6,63.6 L81.385,63.6 C91.186,63.6 92.365,63.527 94.306,62.801 C101.71,60.031 102.845,49.455 96.129,45.8 L94.208,44.754 L96.104,42.847 C99.801,39.129 99.914,34.637 96.401,31.023 C93.692,28.235 92.473,28 80.729,28 L70.6,28 L70.6,45.8 M114.385,35.886 C112.678,40.239 109.954,47.22 108.33,51.4 C106.706,55.58 104.946,60.035 104.419,61.3 L103.46,63.6 L107.242,63.6 C109.919,63.6 111.071,63.454 111.181,63.1 C111.266,62.825 111.916,61.021 112.625,59.091 L113.913,55.583 L121.305,55.691 L128.697,55.8 L130.158,59.6 L131.62,63.4 L135.31,63.515 C137.924,63.596 139,63.494 139,63.162 C139,62.776 132.543,46.298 130.786,42.2 C130.503,41.54 129.12,38.12 127.712,34.6 L125.153,28.2 L121.32,28.086 L117.487,27.972 L114.385,35.886 M137.4,30.8 L137.4,33.6 L142.557,33.6 C146.891,33.6 147.753,33.701 147.957,34.233 C148.091,34.581 148.2,41.331 148.2,49.233 L148.2,63.6 L151.595,63.6 L154.99,63.6 L155.095,48.7 L155.2,33.8 L160.4,33.6 L165.6,33.4 L165.718,30.7 L165.837,28 L151.618,28 L137.4,28 L137.4,30.8 M170.6,45.8 L170.6,63.6 L174.2,63.6 L177.8,63.6 L177.8,55.8 L177.8,48 L185.2,48 L192.6,48 L192.6,55.8 L192.6,63.6 L196,63.6 L199.4,63.6 L199.4,45.8 L199.4,28 L196.009,28 L192.619,28 L192.509,34.9 L192.4,41.8 L185.2,41.8 L178,41.8 L177.891,34.9 L177.781,28 L174.191,28 L170.6,28 L170.6,45.8 M90.832,34.919 C94.463,39.143 91.531,42.103 83.485,42.338 C77.148,42.523 77.415,42.708 77.406,38.133 C77.397,33.186 76.932,33.507 83.892,33.664 L89.87,33.8 L90.832,34.919 M123.848,42.922 C125.096,46.265 126.036,49.135 125.935,49.3 C125.72,49.654 116.844,49.711 116.493,49.36 C116.361,49.228 116.41,48.733 116.6,48.26 C116.791,47.787 117.691,45.33 118.6,42.8 C120.802,36.671 120.985,36.251 121.304,36.571 C121.455,36.722 122.6,39.58 123.848,42.922 M91.12,48.959 C94.625,51.335 93.883,56.473 89.874,57.586 C87.334,58.292 77.933,58.124 77.643,57.367 C77.32,56.526 77.331,49.446 77.656,48.598 C78.056,47.555 89.502,47.863 91.12,48.959 M181.2,74.262 C176.415,75.554 175.236,84.234 179.372,87.715 C183.252,90.98 190.022,88.446 190.772,83.448 C191.73,77.056 187.146,72.656 181.2,74.262 M68.377,74.915 C68.268,75.199 68.229,78.394 68.29,82.015 L68.4,88.6 L69.8,88.6 L71.2,88.6 L71.318,85.9 L71.437,83.2 L73.838,83.2 C78.944,83.2 81.496,78.832 78.325,75.522 C77.098,74.241 68.829,73.737 68.377,74.915 M82.6,81.611 L82.6,88.823 L88.1,88.711 C93.296,88.606 93.6,88.556 93.6,87.8 C93.6,87.063 93.267,86.984 89.4,86.8 L85.2,86.6 L85.2,84.6 L85.2,82.6 L88.9,82.485 L92.6,82.37 L92.6,81.2 L92.6,80.03 L88.9,79.915 L85.2,79.8 L85.2,78.2 L85.2,76.6 L89.2,76.4 C92.973,76.211 93.207,76.149 93.328,75.3 C93.455,74.405 93.428,74.4 88.028,74.4 L82.6,74.4 L82.6,81.611 M96.6,81.6 L96.6,88.8 L97.8,88.8 L99,88.8 L99,84.176 C99,78.733 98.929,78.729 102.453,84.398 C105.149,88.736 105.211,88.8 106.695,88.8 L108.2,88.8 L108.2,81.575 L108.2,74.349 L106.9,74.475 L105.6,74.6 L105.4,79.2 L105.2,83.8 L104.05,82 C103.417,81.01 102.08,78.895 101.08,77.3 C99.415,74.646 99.147,74.4 97.93,74.4 L96.6,74.4 L96.6,81.6 M110.6,75.379 C110.6,76.278 110.772,76.368 112.7,76.479 L114.8,76.6 L114.91,82.7 L115.021,88.8 L116.41,88.8 L117.8,88.8 L117.8,82.6 L117.8,76.4 L120,76.4 C122.08,76.4 122.2,76.345 122.2,75.4 L122.2,74.4 L116.4,74.4 L110.6,74.4 L110.6,75.379 M126.74,75.1 C126.611,75.485 126.068,76.934 125.532,78.321 C121.167,89.618 121.354,88.8 123.136,88.8 C124.34,88.8 124.524,88.642 125,87.2 L125.528,85.6 L128.667,85.6 L131.806,85.6 L132.447,87.2 C133.035,88.67 135.8,89.753 135.8,88.513 C135.8,88.253 132.633,80.11 131.789,78.2 C131.595,77.76 131.167,76.725 130.838,75.9 C130.149,74.169 127.242,73.602 126.74,75.1 M135.4,75.4 C135.4,76.345 135.52,76.4 137.6,76.4 L139.8,76.4 L139.8,82.6 L139.8,88.8 L141.19,88.8 L142.579,88.8 L142.69,82.7 L142.8,76.6 L144.9,76.479 C146.828,76.368 147,76.278 147,75.379 L147,74.4 L141.2,74.4 L135.4,74.4 L135.4,75.4 M149.4,81.6 L149.4,88.8 L150.8,88.8 L152.2,88.8 L152.2,85.6 L152.2,82.4 L155.2,82.4 L158.2,82.4 L158.2,85.6 L158.2,88.8 L159.6,88.8 L161,88.8 L161,81.6 L161,74.4 L159.6,74.4 L158.2,74.4 L158.2,77.2 L158.2,80 L155.2,80 L152.2,80 L152.2,77.2 L152.2,74.4 L150.8,74.4 L149.4,74.4 L149.4,81.6 M164.6,81.612 L164.6,88.824 L169.7,88.712 C174.496,88.607 174.8,88.552 174.8,87.8 C174.8,87.066 174.495,86.991 171.1,86.885 L167.4,86.77 L167.4,80.585 L167.4,74.4 L166,74.4 L164.6,74.4 L164.6,81.612 M193.8,81.6 L193.8,88.8 L195,88.8 L196.2,88.8 L196.2,84.4 C196.2,78.955 196.309,78.956 199.677,84.416 C202.366,88.777 202.417,88.83 203.8,88.716 L205.2,88.6 L205.2,81.6 L205.2,74.6 L203.9,74.475 L202.6,74.349 L202.6,78.975 C202.6,84.635 202.635,84.634 199.245,78.989 C196.606,74.593 196.434,74.4 195.145,74.4 L193.8,74.4 L193.8,81.6 M75.417,76.809 C78.108,78.249 76.941,80.8 73.591,80.8 L71.4,80.8 L71.4,78.6 L71.4,76.4 L73.026,76.4 C73.921,76.4 74.997,76.584 75.417,76.809 M186.113,77.024 C189.957,79.716 188.232,86.8 183.733,86.8 C180.757,86.8 178.941,83.633 179.777,79.9 C180.462,76.842 183.733,75.357 186.113,77.024 M129.771,80.215 C130.886,83.194 130.884,83.2 128.6,83.2 C126.308,83.2 126.314,83.218 127.456,80.236 C128.519,77.458 128.739,77.456 129.771,80.215 Z M74.7,27.898 C72.555,27.826 74.31,27.767 78.6,27.767 C82.89,27.767 84.645,27.826 82.5,27.898 C80.355,27.97 76.845,27.97 74.7,27.898 Z M119.512,27.895 C118.46,27.812 119.22,27.743 121.2,27.742 C123.18,27.741 124.04,27.808 123.112,27.892 C122.184,27.976 120.564,27.977 119.512,27.895 Z M144.3,27.899 C140.395,27.834 143.59,27.78 151.4,27.78 C159.21,27.78 162.405,27.834 158.5,27.899 C154.595,27.965 148.205,27.965 144.3,27.899 Z M172.911,27.893 C171.97,27.809 172.64,27.739 174.4,27.737 C176.16,27.736 176.93,27.805 176.111,27.891 C175.291,27.977 173.851,27.978 172.911,27.893 Z M194.1,27.893 C193.165,27.809 193.93,27.74 195.8,27.74 C197.67,27.74 198.435,27.809 197.5,27.893 C196.565,27.977 195.035,27.977 194.1,27.893 Z M147.992,49 L147.985,34.2 L148.097,48.884 L148.21,63.568 L151.305,63.708 L154.4,63.848 L151.2,63.824 L148,63.8 L147.992,49 Z M80.3,42.296 C79.035,42.216 80.07,42.151 82.6,42.151 C85.13,42.151 86.165,42.216 84.9,42.296 C83.635,42.375 81.565,42.375 80.3,42.296 Z M131.755,63.716 C131.58,63.542 133.183,63.489 135.318,63.597 L139.2,63.794 L135.636,63.914 C133.677,63.979 131.93,63.891 131.755,63.716 Z M74.7,63.898 C72.555,63.826 74.31,63.767 78.6,63.767 C82.89,63.767 84.645,63.826 82.5,63.898 C80.355,63.97 76.845,63.97 74.7,63.898 Z M105.7,63.893 C104.765,63.809 105.53,63.74 107.4,63.74 C109.27,63.74 110.035,63.809 109.1,63.893 C108.165,63.977 106.635,63.977 105.7,63.893 Z M172.911,63.893 C171.97,63.809 172.64,63.739 174.4,63.737 C176.16,63.736 176.93,63.805 176.111,63.891 C175.291,63.977 173.851,63.978 172.911,63.893 Z M194.1,63.893 C193.165,63.809 193.93,63.74 195.8,63.74 C197.67,63.74 198.435,63.809 197.5,63.893 C196.565,63.977 195.035,63.977 194.1,63.893 Z M70.511,74.293 C69.57,74.209 70.24,74.139 72,74.137 C73.76,74.136 74.53,74.205 73.711,74.291 C72.891,74.377 71.451,74.378 70.511,74.293 Z M82.378,74.514 C82.527,74.125 83.864,74.021 87.887,74.087 L93.2,74.175 L87.9,74.299 L82.6,74.423 L82.51,81.712 L82.42,89 L82.3,82.014 C82.234,78.172 82.269,74.797 82.378,74.514 Z M97.1,74.276 C96.715,74.175 97.03,74.093 97.8,74.093 C98.57,74.093 98.885,74.175 98.5,74.276 C98.115,74.376 97.485,74.376 97.1,74.276 Z M113.482,74.296 C112.007,74.219 113.32,74.157 116.4,74.158 C119.48,74.158 120.687,74.221 119.082,74.297 C117.478,74.373 114.958,74.373 113.482,74.296 Z M128.105,74.283 C127.607,74.187 127.92,74.105 128.8,74.101 C129.68,74.096 130.087,74.175 129.705,74.275 C129.322,74.375 128.602,74.379 128.105,74.283 Z M138.282,74.296 C136.807,74.219 138.12,74.157 141.2,74.158 C144.28,74.158 145.487,74.221 143.882,74.297 C142.278,74.373 139.758,74.373 138.282,74.296 Z M149.9,74.276 C149.515,74.175 149.83,74.093 150.6,74.093 C151.37,74.093 151.685,74.175 151.3,74.276 C150.915,74.376 150.285,74.376 149.9,74.276 Z M159.1,74.276 C158.715,74.175 159.03,74.093 159.8,74.093 C160.57,74.093 160.885,74.175 160.5,74.276 C160.115,74.376 159.485,74.376 159.1,74.276 Z M194.3,74.276 C193.915,74.175 194.23,74.093 195,74.093 C195.77,74.093 196.085,74.175 195.7,74.276 C195.315,74.376 194.685,74.376 194.3,74.276 Z M149.165,81.6 C149.165,77.75 149.225,76.175 149.298,78.1 C149.371,80.025 149.371,83.175 149.298,85.1 C149.225,87.025 149.165,85.45 149.165,81.6 Z M164.365,81.6 C164.365,77.75 164.425,76.175 164.498,78.1 C164.571,80.025 164.571,83.175 164.498,85.1 C164.425,87.025 164.365,85.45 164.365,81.6 Z M193.565,81.6 C193.565,77.75 193.625,76.175 193.698,78.1 C193.771,80.025 193.771,83.175 193.698,85.1 C193.625,87.025 193.565,85.45 193.565,81.6 Z M85.093,78.4 C85.093,77.63 85.175,77.315 85.276,77.7 C85.376,78.085 85.376,78.715 85.276,79.1 C85.175,79.485 85.093,79.17 85.093,78.4 Z M85.109,84.4 C85.109,83.41 85.187,83.005 85.282,83.5 C85.378,83.995 85.378,84.805 85.282,85.3 C85.187,85.795 85.109,85.39 85.109,84.4 Z M87.5,86.694 C86.455,86.612 87.31,86.544 89.4,86.544 C91.49,86.544 92.345,86.612 91.3,86.694 C90.255,86.776 88.545,86.776 87.5,86.694 Z M168.4,86.654 C167.74,86.585 168.854,86.499 170.876,86.464 C172.898,86.429 174.637,86.535 174.739,86.7 C174.912,86.977 171.228,86.95 168.4,86.654 Z M121.5,88.4 C121.393,87.999 121.449,87.952 121.67,88.26 C121.851,88.512 122.45,88.811 123,88.923 C123.861,89.099 123.838,89.118 122.831,89.063 C122.171,89.028 121.591,88.738 121.5,88.4 Z M85.517,89.097 C84.022,89.02 85.14,88.956 88,88.955 C90.86,88.955 92.082,89.018 90.717,89.096 C89.351,89.174 87.011,89.174 85.517,89.097 Z M167.3,89.096 C165.925,89.018 167.05,88.954 169.8,88.954 C172.55,88.954 173.675,89.018 172.3,89.096 C170.925,89.174 168.675,89.174 167.3,89.096 Z" id="text" fill="#372D3F"></path>
            <path d="M133.6,101.795 C131.475,102.8 130.224,103.36 122,106.988 C119.14,108.25 115.99,109.65 115,110.099 C114.01,110.548 112.03,111.417 110.6,112.03 C107.558,113.336 107.753,112.202 108.743,122.8 C109.103,126.65 109.664,132.77 109.99,136.4 C110.316,140.03 110.586,143.022 110.591,143.048 C110.617,143.188 114.247,144.004 115.8,144.219 C116.79,144.355 118.23,144.626 119,144.821 C119.77,145.016 123.37,145.728 127,146.404 C130.63,147.08 134.32,147.812 135.2,148.03 C136.08,148.249 137.766,148.466 138.946,148.514 L141.092,148.6 L148.846,135.885 C157.213,122.164 156.927,122.741 155.9,121.669 C155.14,120.874 154.034,119.677 146.79,111.8 C144.16,108.94 141.165,105.7 140.135,104.6 C139.105,103.5 137.912,102.195 137.484,101.7 C136.527,100.592 136.121,100.602 133.6,101.795" id="pent5" fill="#B977D0"></path>
            <path d="M73.994,109.507 C73.564,110.328 72.299,112.53 71.182,114.4 C70.065,116.27 69.028,118.07 68.878,118.4 C68.728,118.73 68.429,119.27 68.214,119.6 C67.501,120.694 64.753,125.39 64.469,126 C64.315,126.33 63.641,127.5 62.97,128.6 C62.3,129.7 61.543,131.095 61.288,131.7 C61.033,132.305 60.704,132.8 60.556,132.8 C58.73,132.8 60.589,136.379 64.4,140.198 C64.84,140.639 66.368,142.35 67.797,144 C69.225,145.65 70.575,147.202 70.797,147.45 C71.018,147.697 72.19,149.047 73.4,150.45 C74.61,151.852 76.43,153.886 77.445,154.969 L79.29,156.938 L80.958,156.069 C81.874,155.591 82.889,155.2 83.212,155.2 C83.536,155.2 83.8,155.034 83.8,154.832 C83.8,154.629 84.34,154.345 85,154.2 C85.66,154.055 86.2,153.771 86.2,153.568 C86.2,153.366 86.399,153.2 86.643,153.2 C86.886,153.2 88.281,152.641 89.743,151.958 C91.204,151.275 93.57,150.178 95,149.521 C96.43,148.863 98.434,147.892 99.454,147.362 C100.474,146.833 101.599,146.4 101.954,146.4 C102.309,146.4 102.6,146.234 102.6,146.032 C102.6,145.829 103.14,145.545 103.8,145.4 C104.46,145.255 105,144.99 105,144.812 C105,144.633 105.466,144.37 106.036,144.227 C106.834,144.026 107.001,143.809 106.76,143.283 C106.589,142.907 106.326,140.98 106.177,139 C106.028,137.02 105.698,132.61 105.443,129.2 C105.188,125.79 104.804,121.999 104.59,120.776 C104.375,119.553 104.2,117.438 104.2,116.076 L104.2,113.6 L102.8,113.6 C102.03,113.6 101.4,113.443 101.4,113.252 C101.4,113.06 100.095,112.775 98.5,112.618 C96.905,112.46 95.42,112.192 95.2,112.02 C94.98,111.849 93.72,111.589 92.4,111.442 C91.08,111.295 89.46,111.011 88.8,110.812 C86.497,110.117 81.876,109.2 80.676,109.2 C80.011,109.2 79.407,109.047 79.333,108.861 C79.26,108.674 78.204,108.407 76.987,108.267 L74.775,108.014 L73.994,109.507" id="pent4" fill="#20CA67"></path>
            <path d="M49.8,84.816 C49.47,85.019 47.4,86.013 45.2,87.024 C43,88.035 40.3,89.288 39.2,89.808 C38.1,90.329 35.826,91.391 34.146,92.17 C20.856,98.331 22.33,96.898 23.003,103 C23.197,104.76 23.645,108.81 23.998,112 C24.351,115.19 24.807,119.399 25.012,121.353 C25.216,123.307 25.495,125.498 25.631,126.223 L25.878,127.54 L29.739,128.192 C31.863,128.55 34.32,129.007 35.2,129.207 C36.08,129.407 37.61,129.676 38.6,129.806 C39.59,129.936 41.21,130.208 42.2,130.411 C43.19,130.613 45.71,131.06 47.8,131.404 C49.89,131.747 52.559,132.218 53.731,132.45 C54.903,132.682 55.918,132.81 55.987,132.736 C56.283,132.413 60.6,125.153 60.6,124.978 C60.6,124.871 61.023,124.113 61.541,123.292 C62.059,122.471 63.47,120.09 64.678,118 C65.886,115.91 67.897,112.431 69.147,110.269 L71.419,106.338 L70.362,105.069 C69.781,104.371 67.122,101.541 64.453,98.779 C61.784,96.018 57.57,91.653 55.089,89.079 C52.608,86.506 50.538,84.411 50.489,84.424 C50.44,84.436 50.13,84.613 49.8,84.816" id="pent3" fill="#E9ED4E"></path>
            <path d="M14.09,47.867 C13.561,48.71 12.694,50.209 12.164,51.199 C11.634,52.188 11.11,53.088 11,53.199 C10.79,53.41 9.977,54.847 8.738,57.2 C8.332,57.97 7.91,58.69 7.8,58.8 C7.69,58.91 7.268,59.63 6.862,60.4 C5.486,63.012 4.801,64.199 4.554,64.4 C4.419,64.51 4.181,65.005 4.027,65.5 C3.872,65.995 3.578,66.4 3.373,66.4 C3.168,66.4 3,66.605 3,66.856 C3,67.106 2.493,68.141 1.874,69.156 C0.098,72.065 0.097,72.155 1.855,74.063 C6.243,78.825 21.189,94 21.491,94 C21.681,94 23.183,93.37 24.827,92.6 C26.472,91.83 28.084,91.2 28.409,91.2 C28.734,91.2 29,91.02 29,90.8 C29,90.58 29.19,90.4 29.422,90.4 C29.654,90.4 30.689,90.016 31.722,89.547 C32.755,89.077 34.59,88.257 35.8,87.724 C37.01,87.191 38.36,86.595 38.8,86.4 C39.24,86.205 40.59,85.609 41.8,85.076 C43.01,84.543 44.81,83.749 45.8,83.312 C46.79,82.875 47.925,82.403 48.321,82.263 C49.097,81.99 48.953,75.487 48.151,74.62 C47.958,74.411 47.8,73.475 47.8,72.54 C47.8,71.605 47.617,69.976 47.394,68.92 C47.17,67.864 46.818,65.56 46.611,63.8 C45.204,51.825 45.311,52.39 44.429,52.219 C43.973,52.13 41.89,51.753 39.8,51.382 C37.71,51.01 35.64,50.557 35.2,50.375 C34.76,50.193 33.23,49.924 31.8,49.778 C30.37,49.631 29.02,49.375 28.8,49.21 C28.58,49.044 27.32,48.789 26,48.642 C24.68,48.495 23.06,48.211 22.4,48.013 C21.74,47.814 20.12,47.475 18.8,47.26 C17.48,47.045 16.097,46.749 15.726,46.602 C15.231,46.405 14.796,46.742 14.09,47.867" id="pent2" fill="#AE3D5E"></path>
            <path d="M37.053,1.632 C35.129,2.486 34.12,2.939 30.072,4.768 C28.572,5.445 27.277,6 27.196,6 C27.114,6 25.496,6.72 23.6,7.6 C21.704,8.48 20.086,9.2 20.006,9.2 C19.925,9.2 18.54,9.809 16.929,10.553 C15.318,11.297 13.305,12.196 12.456,12.551 C11.091,13.121 10.942,13.315 11.171,14.227 C11.313,14.794 11.605,16.729 11.818,18.529 C12.032,20.328 12.387,22.97 12.607,24.4 C12.827,25.83 13.277,29.07 13.607,31.6 C15.27,44.344 14.696,42.998 18.809,43.804 C25.444,45.103 32.499,46.479 35.2,46.999 C43.209,48.541 44.464,48.792 45.2,48.998 C45.866,49.184 46.283,48.701 47.694,46.111 C48.625,44.4 49.654,42.55 49.981,42 C50.307,41.45 52.669,37.31 55.229,32.8 C57.789,28.29 60.045,24.429 60.242,24.22 C61.1,23.31 60.207,22.116 53.466,15.161 C49.542,11.112 44.831,6.225 42.998,4.3 C39.33,0.449 39.523,0.536 37.053,1.632" id="pent1" fill="#4574A9"></path>
        </g>
    </g>
</svg>